<mxfile host="65bd71144e">
    <diagram id="SZgZUIBA6v_IzPTl6dWH" name="Page-1">
        <mxGraphModel dx="1618" dy="717" grid="1" gridSize="10" guides="1" tooltips="1" connect="1" arrows="1" fold="1" page="1" pageScale="1" pageWidth="850" pageHeight="1100" math="0" shadow="0">
            <root>
                <mxCell id="0"/>
                <mxCell id="1" parent="0"/>
                <mxCell id="2" value="Cluster" style="swimlane;whiteSpace=wrap;html=1;fillColor=#fff2cc;strokeColor=#d6b656;fillStyle=auto;" vertex="1" parent="1">
                    <mxGeometry x="30" y="50" width="460" height="480" as="geometry"/>
                </mxCell>
                <mxCell id="4" value="Node" style="swimlane;whiteSpace=wrap;html=1;fillColor=#dae8fc;strokeColor=#6c8ebf;" vertex="1" parent="2">
                    <mxGeometry x="240" y="40" width="200" height="200" as="geometry"/>
                </mxCell>
                <mxCell id="15" value="Daemon Set Pods" style="rounded=0;whiteSpace=wrap;html=1;" vertex="1" parent="4">
                    <mxGeometry x="10" y="30" width="120" height="30" as="geometry"/>
                </mxCell>
                <mxCell id="16" value="Pod" style="rounded=0;whiteSpace=wrap;html=1;" vertex="1" parent="4">
                    <mxGeometry x="10" y="70" width="120" height="30" as="geometry"/>
                </mxCell>
                <mxCell id="13" value="Pod" style="rounded=0;whiteSpace=wrap;html=1;" vertex="1" parent="4">
                    <mxGeometry x="10" y="110" width="120" height="30" as="geometry"/>
                </mxCell>
                <mxCell id="14" value="Pod" style="rounded=0;whiteSpace=wrap;html=1;" vertex="1" parent="4">
                    <mxGeometry x="10" y="150" width="120" height="30" as="geometry"/>
                </mxCell>
                <mxCell id="3" value="Node" style="swimlane;whiteSpace=wrap;html=1;fillColor=#dae8fc;strokeColor=#6c8ebf;" vertex="1" parent="2">
                    <mxGeometry x="20" y="40" width="200" height="200" as="geometry"/>
                </mxCell>
                <mxCell id="11" value="Daemon Set Pods" style="rounded=0;whiteSpace=wrap;html=1;" vertex="1" parent="3">
                    <mxGeometry x="10" y="30" width="120" height="30" as="geometry"/>
                </mxCell>
                <mxCell id="12" value="Pod" style="rounded=0;whiteSpace=wrap;html=1;" vertex="1" parent="3">
                    <mxGeometry x="10" y="70" width="120" height="30" as="geometry"/>
                </mxCell>
                <mxCell id="20" value="" style="sketch=0;outlineConnect=0;fontColor=#232F3E;gradientColor=none;fillColor=#232F3D;strokeColor=none;dashed=0;verticalLabelPosition=bottom;verticalAlign=top;align=center;html=1;fontSize=12;fontStyle=0;aspect=fixed;pointerEvents=1;shape=mxgraph.aws4.question;" vertex="1" parent="3">
                    <mxGeometry x="110" y="140" width="14.72" height="28" as="geometry"/>
                </mxCell>
                <mxCell id="5" value="Node" style="swimlane;whiteSpace=wrap;html=1;fillColor=#dae8fc;strokeColor=#6c8ebf;" vertex="1" parent="2">
                    <mxGeometry x="240" y="260" width="200" height="200" as="geometry"/>
                </mxCell>
                <mxCell id="9" value="Daemon Set Pods" style="rounded=0;whiteSpace=wrap;html=1;" vertex="1" parent="5">
                    <mxGeometry x="20" y="30" width="120" height="30" as="geometry"/>
                </mxCell>
                <mxCell id="10" value="Pod" style="rounded=0;whiteSpace=wrap;html=1;" vertex="1" parent="5">
                    <mxGeometry x="20" y="70" width="120" height="30" as="geometry"/>
                </mxCell>
                <mxCell id="22" value="" style="sketch=0;outlineConnect=0;fontColor=#232F3E;gradientColor=none;fillColor=#232F3D;strokeColor=none;dashed=0;verticalLabelPosition=bottom;verticalAlign=top;align=center;html=1;fontSize=12;fontStyle=0;aspect=fixed;pointerEvents=1;shape=mxgraph.aws4.question;" vertex="1" parent="5">
                    <mxGeometry x="90" y="150" width="14.72" height="28" as="geometry"/>
                </mxCell>
                <mxCell id="6" value="Node" style="swimlane;whiteSpace=wrap;html=1;fillColor=#dae8fc;strokeColor=#6c8ebf;" vertex="1" parent="2">
                    <mxGeometry x="20" y="260" width="200" height="200" as="geometry"/>
                </mxCell>
                <mxCell id="7" value="Daemon Set Pods" style="rounded=0;whiteSpace=wrap;html=1;" vertex="1" parent="6">
                    <mxGeometry x="10" y="30" width="120" height="30" as="geometry"/>
                </mxCell>
                <mxCell id="8" value="Pod" style="rounded=0;whiteSpace=wrap;html=1;" vertex="1" parent="6">
                    <mxGeometry x="10" y="70" width="120" height="30" as="geometry"/>
                </mxCell>
                <mxCell id="21" value="" style="sketch=0;outlineConnect=0;fontColor=#232F3E;gradientColor=none;fillColor=#232F3D;strokeColor=none;dashed=0;verticalLabelPosition=bottom;verticalAlign=top;align=center;html=1;fontSize=12;fontStyle=0;aspect=fixed;pointerEvents=1;shape=mxgraph.aws4.question;" vertex="1" parent="6">
                    <mxGeometry x="100" y="160" width="14.72" height="28" as="geometry"/>
                </mxCell>
                <mxCell id="17" value="Pod&lt;br&gt;(pending)" style="rounded=0;whiteSpace=wrap;html=1;" vertex="1" parent="1">
                    <mxGeometry x="580" y="272.5" width="120" height="35" as="geometry"/>
                </mxCell>
                <mxCell id="18" value="" style="fillColor=#6ABD46;verticalLabelPosition=bottom;sketch=0;html=1;strokeColor=#ffffff;verticalAlign=top;align=center;points=[[0.145,0.145,0],[0.5,0,0],[0.855,0.145,0],[1,0.5,0],[0.855,0.855,0],[0.5,1,0],[0.145,0.855,0],[0,0.5,0]];pointerEvents=1;shape=mxgraph.cisco_safe.compositeIcon;bgIcon=ellipse;resIcon=mxgraph.cisco_safe.capability.block;" vertex="1" parent="1">
                    <mxGeometry x="530" y="268.5" width="43" height="43" as="geometry"/>
                </mxCell>
                <mxCell id="19" value="&lt;div style=&quot;color: rgb(0, 0, 0); background-color: rgb(255, 255, 255); font-family: Menlo, Monaco, &amp;quot;Courier New&amp;quot;, monospace; font-weight: normal; font-size: 12px; line-height: 18px;&quot;&gt;&lt;div&gt;&lt;span style=&quot;color: #800000;&quot;&gt;Failed    Scheduling Insufficient cpu.&lt;/span&gt;&lt;/div&gt;&lt;/div&gt;" style="text;whiteSpace=wrap;html=1;" vertex="1" parent="1">
                    <mxGeometry x="520" y="340" width="290" height="30" as="geometry"/>
                </mxCell>
                <mxCell id="23" value="" style="endArrow=classic;html=1;exitX=0;exitY=0.5;exitDx=0;exitDy=0;exitPerimeter=0;dashed=1;" edge="1" parent="1" source="18">
                    <mxGeometry width="50" height="50" relative="1" as="geometry">
                        <mxPoint x="630" y="390" as="sourcePoint"/>
                        <mxPoint x="160" y="220" as="targetPoint"/>
                    </mxGeometry>
                </mxCell>
                <mxCell id="24" value="" style="endArrow=classic;html=1;exitX=0;exitY=0.5;exitDx=0;exitDy=0;exitPerimeter=0;dashed=1;" edge="1" parent="1" source="18">
                    <mxGeometry width="50" height="50" relative="1" as="geometry">
                        <mxPoint x="540" y="300" as="sourcePoint"/>
                        <mxPoint x="150" y="460" as="targetPoint"/>
                    </mxGeometry>
                </mxCell>
                <mxCell id="25" value="" style="endArrow=classic;html=1;exitX=0;exitY=0.5;exitDx=0;exitDy=0;exitPerimeter=0;dashed=1;" edge="1" parent="1" source="18">
                    <mxGeometry width="50" height="50" relative="1" as="geometry">
                        <mxPoint x="550" y="310" as="sourcePoint"/>
                        <mxPoint x="360" y="450" as="targetPoint"/>
                    </mxGeometry>
                </mxCell>
            </root>
        </mxGraphModel>
    </diagram>
</mxfile>
